<svg width="23" height="23" viewBox="0 0 23 23" fill="none" xmlns="http://www.w3.org/2000/svg">
<path d="M19.1667 13.4167C20.2252 13.4167 21.0833 12.5585 21.0833 11.5C21.0833 10.4414 20.2252 9.58333 19.1667 9.58333C18.1081 9.58333 17.25 10.4414 17.25 11.5C17.25 12.5585 18.1081 13.4167 19.1667 13.4167Z" stroke="#928EA0" stroke-width="1.4" stroke-linecap="round" stroke-linejoin="round"/>
<path d="M19.1667 5.75001C20.2252 5.75001 21.0833 4.89188 21.0833 3.83334C21.0833 2.77479 20.2252 1.91667 19.1667 1.91667C18.1081 1.91667 17.25 2.77479 17.25 3.83334C17.25 4.89188 18.1081 5.75001 19.1667 5.75001Z" stroke="#928EA0" stroke-width="1.4" stroke-linecap="round" stroke-linejoin="round"/>
<path d="M19.1667 21.0833C20.2252 21.0833 21.0833 20.2252 21.0833 19.1667C21.0833 18.1081 20.2252 17.25 19.1667 17.25C18.1081 17.25 17.25 18.1081 17.25 19.1667C17.25 20.2252 18.1081 21.0833 19.1667 21.0833Z" stroke="#928EA0" stroke-width="1.4" stroke-linecap="round" stroke-linejoin="round"/>
<path d="M3.83335 13.4167C4.8919 13.4167 5.75002 12.5585 5.75002 11.5C5.75002 10.4414 4.8919 9.58333 3.83335 9.58333C2.77481 9.58333 1.91669 10.4414 1.91669 11.5C1.91669 12.5585 2.77481 13.4167 3.83335 13.4167Z" stroke="#928EA0" stroke-width="1.4" stroke-linecap="round" stroke-linejoin="round"/>
<path d="M5.75 11.5H17.25" stroke="#928EA0" stroke-width="1.4" stroke-linecap="round" stroke-linejoin="round"/>
<path d="M17.25 3.83333H13.4167C11.5 3.83333 10.5417 4.79166 10.5417 6.70833V16.2917C10.5417 18.2083 11.5 19.1667 13.4167 19.1667H17.25" stroke="#928EA0" stroke-width="1.4" stroke-linecap="round" stroke-linejoin="round"/>
</svg>
