<svg width="52" height="48" viewBox="0 0 52 48" fill="none" xmlns="http://www.w3.org/2000/svg">
<path fill-rule="evenodd" clip-rule="evenodd" d="M43.761 5.28285L41.2 5.36855L41.9922 6.52001C42.428 7.15313 42.7844 7.72493 42.7844 7.79044C42.7844 7.85595 37.8947 11.1775 31.9186 15.1717L21.0528 22.4337L12.0529 16.407L3.05318 10.3803L1.52646 11.314L0 12.2477L0.165879 14.2102C0.257074 15.2896 0.331759 20.6698 0.331759 26.1664V36.16L2.94469 37.6572C4.38179 38.4805 5.62261 39.1543 5.70201 39.1543C5.78168 39.1543 5.83854 34.6435 5.82858 29.1307C5.81863 23.6179 5.90458 19.1093 6.01936 19.1119C6.13414 19.1143 9.57254 21.3349 13.6606 24.0464L21.0929 28.9761L28.602 23.9761C32.732 21.2262 36.1961 18.9762 36.3001 18.9762C36.4039 18.9762 36.5197 23.5115 36.5574 29.055L36.6261 39.1338L39.1811 37.6509L41.7361 36.1679L41.7374 28.1617C41.7382 23.7581 41.8155 18.9969 41.9094 17.5807L42.0797 15.0063L43.9922 13.716L45.9044 12.4256L46.7317 13.6279C47.1866 14.2894 47.6468 14.7314 47.7539 14.6104C47.9879 14.346 51.6999 5.56509 51.6965 5.2839C51.6942 5.09627 49.3456 5.09575 43.761 5.28285Z" fill="#A3A3D9"/>
<path fill-rule="evenodd" clip-rule="evenodd" d="M13.7104 4.15119C9.75441 6.43183 6.47901 8.41479 6.43131 8.55761C6.33802 8.83748 10.6111 11.7882 11.1097 11.7882C11.2754 11.7882 13.5804 10.5461 16.2321 9.02773L21.0536 6.26726L25.8481 9.02773C28.4852 10.5461 30.7815 11.7882 30.9511 11.7882C31.4435 11.7882 35.7317 8.84325 35.64 8.56809C35.5944 8.43104 34.1466 7.4976 32.4228 6.49394C27.4322 3.58856 21.1141 -0.00445076 21.0041 4.13855e-06C20.9485 0.00262467 17.6663 1.87054 13.7104 4.15119ZM8.77459 37.9228L8.84849 40.9969L14.9397 44.4984L21.0306 48L25.8149 45.2589C28.4461 43.7513 31.1885 42.1701 31.9092 41.7448L33.2194 40.9715L33.2933 37.9102C33.3339 36.2265 33.2632 34.8489 33.1361 34.8489C33.009 34.8489 30.2404 36.3887 26.9839 38.2705L21.0628 41.6921L15.1037 38.2705C11.8265 36.3887 9.04503 34.8489 8.92291 34.8489C8.8008 34.8489 8.73398 36.2322 8.77459 37.9228Z" fill="#A3A3D9" fill-opacity="0.56"/>
</svg>
