<svg width="22" height="21" viewBox="0 0 22 21" fill="none" xmlns="http://www.w3.org/2000/svg">
<path d="M3.92197 0.875C3.37787 0.875005 2.85449 1.08372 2.4597 1.45814C2.06491 1.83256 1.82878 2.34416 1.79997 2.8875L0.958974 18.7625C0.943699 19.0506 0.98726 19.3388 1.087 19.6096C1.18674 19.8803 1.34058 20.1279 1.53912 20.3373C1.73767 20.5466 1.97677 20.7134 2.24185 20.8273C2.50694 20.9412 2.79244 21 3.08097 21H6.41797C6.7065 21 6.99201 20.9412 7.25709 20.8273C7.52218 20.7134 7.76128 20.5466 7.95982 20.3373C8.15837 20.1279 8.3122 19.8803 8.41195 19.6096C8.51169 19.3388 8.55525 19.0506 8.53997 18.7625L7.69897 2.8875C7.67017 2.34416 7.43404 1.83256 7.03925 1.45814C6.64445 1.08372 6.12108 0.875005 5.57697 0.875H3.92197ZM3.04847 2.9535C3.06038 2.72985 3.15759 2.51927 3.32009 2.36514C3.48259 2.21102 3.698 2.12507 3.92197 2.125H5.57697C6.04197 2.125 6.42597 2.489 6.45047 2.9535L7.29197 18.8285C7.29829 18.9472 7.28036 19.0659 7.23929 19.1774C7.19822 19.2889 7.13486 19.3909 7.05307 19.4771C6.97129 19.5634 6.8728 19.632 6.76361 19.6789C6.65442 19.7259 6.53682 19.75 6.41797 19.75H3.08097C2.96217 19.75 2.84462 19.7257 2.73549 19.6788C2.62636 19.6319 2.52793 19.5632 2.4462 19.477C2.36447 19.3907 2.30116 19.2888 2.26011 19.1773C2.21907 19.0658 2.20116 18.9471 2.20747 18.8285L3.04847 2.9535ZM8.70947 21C9.04008 20.6442 9.28318 20.2162 9.41947 19.75H10.7495V14.625C10.7495 14.142 11.1415 13.75 11.6245 13.75H17.1245C17.608 13.75 17.9995 14.142 17.9995 14.625V19.75H18.3905C18.7532 19.75 19.1013 19.6067 19.3589 19.3512C19.6164 19.0957 19.7626 18.7488 19.7655 18.386L19.8625 6.021L14.4415 11.442C14.3541 11.5294 14.2427 11.589 14.1214 11.6131C14.0002 11.6372 13.8745 11.6248 13.7603 11.5775C13.6461 11.5302 13.5484 11.4501 13.4798 11.3473C13.4111 11.2445 13.3745 11.1236 13.3745 11V6.009L9.09247 10.291L9.00347 8.612L13.5575 4.058C13.6449 3.9704 13.7563 3.9107 13.8776 3.88648C13.999 3.86225 14.1248 3.87459 14.2391 3.92192C14.3534 3.96926 14.4511 4.04946 14.5198 4.15237C14.5885 4.25528 14.6251 4.37627 14.625 4.5V9.491L20.058 4.058C20.1457 3.97026 20.2575 3.91061 20.3792 3.88664C20.501 3.86267 20.6271 3.87547 20.7415 3.9234C20.8559 3.97134 20.9535 4.05225 21.0218 4.15582C21.0901 4.25939 21.126 4.38094 21.125 4.505L21.015 18.395C21.0097 19.0877 20.7308 19.7503 20.2391 20.2382C19.7474 20.7262 19.0827 21 18.39 21H8.70997H8.70947ZM11.9995 19.75H16.7495V15H12V19.75H11.9995Z" fill="white"/>
</svg>
